<?xml version="1.0" encoding="UTF-8" standalone="no"?>
<!-- Created with Inkscape (http://www.inkscape.org/) -->

<svg
   xmlns:dc="http://purl.org/dc/elements/1.1/"
   xmlns:cc="http://creativecommons.org/ns#"
   xmlns:rdf="http://www.w3.org/1999/02/22-rdf-syntax-ns#"
   xmlns:svg="http://www.w3.org/2000/svg"
   xmlns="http://www.w3.org/2000/svg"
   xmlns:sodipodi="http://sodipodi.sourceforge.net/DTD/sodipodi-0.dtd"
   xmlns:inkscape="http://www.inkscape.org/namespaces/inkscape"
   width="661.45831mm"
   height="661.45831mm"
   viewBox="0 0 661.45831 661.45831"
   version="1.1"
   id="svg8"
   inkscape:export-filename="Torch.NET_icon512.png"
   inkscape:export-xdpi="19.660801"
   inkscape:export-ydpi="19.660801"
   inkscape:version="0.92.3 (2405546, 2018-03-11)"
   sodipodi:docname="logo.svg">
  <defs
     id="defs2" />
  <sodipodi:namedview
     id="base"
     pagecolor="#ffffff"
     bordercolor="#666666"
     borderopacity="1.0"
     inkscape:pageopacity="0.0"
     inkscape:pageshadow="2"
     inkscape:zoom="0.11313708"
     inkscape:cx="1256.2863"
     inkscape:cy="1741.1911"
     inkscape:document-units="mm"
     inkscape:current-layer="layer1"
     showgrid="false"
     showguides="true"
     inkscape:guide-bbox="true"
     fit-margin-top="0"
     fit-margin-left="0"
     fit-margin-right="0"
     fit-margin-bottom="0"
     inkscape:window-width="1920"
     inkscape:window-height="1017"
     inkscape:window-x="1912"
     inkscape:window-y="-8"
     inkscape:window-maximized="1" />
  <metadata
     id="metadata5">
    <rdf:RDF>
      <cc:Work
         rdf:about="">
        <dc:format>image/svg+xml</dc:format>
        <dc:type
           rdf:resource="http://purl.org/dc/dcmitype/StillImage" />
        <dc:title></dc:title>
      </cc:Work>
    </rdf:RDF>
  </metadata>
  <g
     inkscape:label="Layer 1"
     inkscape:groupmode="layer"
     id="layer1"
     transform="translate(-1039.6953,0.98863906)">
    <path
       style="fill:#661f76;stroke-width:0.26458332;fill-opacity:1"
       d="M 1039.6953,-0.98864607 V 329.74051 660.46967 h 330.7292 330.7291 V 329.74051 -0.98864607 h -330.7291 z"
       id="path827-3-5"
       inkscape:connector-curvature="0" />
    <path
       style="fill:#865fc5;stroke-width:0.99999994;fill-opacity:1"
       d="M 1250,366.50195 986.42188,630 C 841.45432,774.92462 716.90223,900.02501 709.64062,908 609.32743,1018.1636 546.2294,1152.4457 525.58789,1299.6836 c -5.29927,37.7998 -6.05273,50.3882 -6.05273,101.3164 0,51.9594 0.76249,64.1307 6.52929,104.4258 27.05008,189.0132 125.74229,357.9093 277.93555,475.6426 118.90734,91.9839 267.1216,145.483 418,150.8789 11.2751,0.4032 21.8502,0.7939 23.5,0.8691 1.6501,0.075 14.5177,-0.2846 28.5938,-0.7988 57.4117,-2.0981 104.478,-8.7982 158.4062,-22.5508 153.2614,-39.084 290.5438,-128.0799 389.8535,-252.7285 81.346,-102.1013 133.0741,-221.9876 151.582,-351.3125 5.7669,-40.2951 6.5274,-52.4664 6.5274,-104.4258 0,-50.9282 -0.7515,-63.5166 -6.0508,-101.3164 -20.711,-147.7343 -84.4039,-282.8725 -185.2031,-392.94727 -7.1698,-7.82963 -15.1084,-16.25169 -17.6426,-18.71485 l -4.6074,-4.47851 -64.6426,64.64258 -64.6426,64.64255 11.0684,11.836 c 62.3134,66.6446 104.2182,140.3671 128.832,226.6504 29.6277,103.8606 27.6616,215.2153 -5.6172,318.1855 -27.7629,85.9023 -74.5342,161.0855 -139.75,224.6426 -76.0686,74.1344 -170.8025,124.0644 -274.707,144.7851 -37.5095,7.4801 -67.0647,10.3164 -107.5,10.3164 -40.4357,0 -69.9905,-2.8363 -107.5,-10.3164 -127.1743,-25.3612 -240.21972,-94.4918 -322,-196.914 -33.12869,-41.4907 -59.65972,-87.0533 -79.33594,-136.2442 -40.53052,-101.3286 -50.14011,-209.6606 -28.07031,-316.455 18.6686,-90.3348 58.66662,-171.9229 119.83789,-244.4473 6.27817,-7.4434 91.37873,-93.39325 213.74996,-215.88282 L 1250,625.46875 V 495.98633 Z"
       transform="matrix(0.26458333,0,0,0.26458333,1039.6953,-0.98863906)"
       id="path871" />
    <path
       style="fill:#3fc6ee;stroke-width:0.99999994;fill-opacity:1"
       d="m 1504.918,660.0918 c -4.7408,0.0387 -9.1397,0.31515 -12.5254,0.86132 -20.4575,3.30014 -38.8508,13.21668 -53.4707,28.82813 -32.3033,34.49405 -34.353,87.12042 -4.8496,124.56836 14.1543,17.96587 36.6904,30.81804 60.7422,34.64258 7.3855,1.17445 25.8721,0.41463 34.3281,-1.41016 27.7984,-5.99875 53.2052,-26.57236 65.3965,-52.95898 6.5567,-14.19122 7.9609,-21.1816 7.9609,-39.62305 0,-14.13101 -0.3328,-17.7204 -2.3145,-25 -8.6509,-31.77592 -34.5834,-58.05078 -66.1855,-67.05664 -6.5709,-1.87261 -18.6524,-2.93667 -29.082,-2.85156 z"
       transform="matrix(0.26458333,0,0,0.26458333,1039.6953,-0.98863906)"
       id="path829" />
    <g
       id="text828-3"
       style="font-style:normal;font-weight:normal;font-size:244.95025635px;line-height:1.25;font-family:sans-serif;letter-spacing:0px;word-spacing:0px;fill:#ffffff;fill-opacity:1;stroke:none;stroke-width:6.12375736"
       aria-label="#">
      <path
         inkscape:connector-curvature="0"
         id="path819"
         style="font-style:normal;font-variant:normal;font-weight:normal;font-stretch:normal;font-family:Calibri;-inkscape-font-specification:Calibri;fill:#ffffff;stroke-width:6.12375736;fill-opacity:1"
         d="m 1423.9894,338.12961 q 0,2.03328 -0.3588,3.46854 -0.2392,1.43525 -0.8372,2.39209 -0.4784,0.83723 -1.3157,1.31565 -0.7176,0.35881 -1.5548,0.35881 h -15.6682 l -4.7842,39.70874 h 13.8741 q 1.7941,0 2.8705,1.79407 1.1961,1.79407 1.1961,5.86062 0,2.03328 -0.3588,3.46854 -0.3589,1.43525 -0.8373,2.39209 -0.4784,0.83723 -1.3156,1.31565 -0.7176,0.35881 -1.5549,0.35881 h -15.9074 l -5.0234,40.90478 q -0.1196,0.83723 -0.4784,1.55486 -0.3588,0.59803 -1.3157,1.07644 -0.9568,0.35882 -2.6313,0.47842 -1.6744,0.23921 -4.4253,0.23921 -2.7509,0 -4.545,-0.23921 -1.7941,-0.1196 -2.7509,-0.47842 -0.9568,-0.47841 -1.3157,-1.07644 -0.3588,-0.71763 -0.2392,-1.55486 l 5.0234,-40.90478 h -33.2501 l -5.0234,40.90478 q -0.2392,0.83723 -0.598,1.55486 -0.2392,0.59803 -1.196,1.07644 -0.8373,0.35882 -2.5117,0.47842 -1.6745,0.23921 -4.4254,0.23921 -2.8705,0 -4.6646,-0.23921 -1.794,-0.1196 -2.7509,-0.47842 -0.9568,-0.47841 -1.3156,-1.07644 -0.3588,-0.71763 -0.2392,-1.55486 l 4.9037,-40.90478 h -13.8741 q -1.7941,0 -2.9901,-1.67446 -1.0764,-1.79407 -1.0764,-5.86063 0,-2.03328 0.3588,-3.46853 0.3588,-1.43526 0.8372,-2.27249 0.4784,-0.95684 1.196,-1.43525 0.7177,-0.47842 1.6745,-0.47842 h 16.027 l 4.9038,-39.70874 h -14.4721 q -1.7941,0 -2.9902,-1.79407 -1.0764,-1.79406 -1.0764,-5.62141 0,-4.18616 1.0764,-5.98023 1.1961,-1.79407 2.9902,-1.79407 h 16.2662 l 4.9038,-38.39308 q 0.1196,-0.83724 0.4784,-1.43526 0.4784,-0.71763 1.4353,-1.07644 1.0764,-0.47842 2.8705,-0.71763 1.794,-0.23921 4.5449,-0.23921 2.8706,0 4.545,0.23921 1.6745,0.23921 2.5117,0.71763 0.9569,0.35881 1.1961,1.07644 0.2392,0.59802 0.2392,1.31565 l -5.0234,38.51269 h 33.2501 l 4.6645,-38.39308 q 0.1196,-0.83724 0.5981,-1.43526 0.4784,-0.71763 1.4352,-1.07644 0.9569,-0.47842 2.7509,-0.71763 1.7941,-0.23921 4.6646,-0.23921 2.7509,0 4.4254,0.23921 1.794,0.23921 2.6313,0.71763 0.8372,0.35881 1.0764,1.07644 0.3588,0.59802 0.2392,1.31565 l -4.7842,38.51269 h 13.7546 q 1.794,0 2.8705,1.91367 1.196,1.79407 1.196,5.74102 z m -70.6863,7.53509 -4.7842,39.70874 h 33.1305 l 5.0234,-39.70874 z" />
    </g>
    <g
       id="g895"
       transform="translate(-495.31491,-2152.5171)">
      <path
         style="fill:#ec4a2a;stroke-width:0.26458332"
         d="m 26.092478,2512.6476 v -330.7292 h 330.729202 330.7291 v 330.7292 330.7291 H 356.82168 26.092478 Z"
         id="path829-0"
         inkscape:connector-curvature="0" />
      <path
         style="fill:#000000;stroke-width:0.26458332"
         d="m 26.092478,2512.6476 v -330.7292 h 330.729202 330.7291 v 330.7292 330.7291 H 356.82168 26.092478 Z M 363.19628,2746.015 c 15.1902,-0.5552 27.6433,-2.328 41.9118,-5.9667 40.5504,-10.341 76.8733,-33.8878 103.149,-66.8678 21.5228,-27.0143 35.2091,-58.7344 40.106,-92.9516 1.5258,-10.6614 1.7271,-13.8816 1.7271,-27.6292 0,-13.4748 -0.1989,-16.8057 -1.601,-26.8069 -5.4798,-39.088 -22.3319,-74.8433 -49.0017,-103.9672 -1.897,-2.0716 -3.9977,-4.2998 -4.6682,-4.9515 l -1.219,-1.1849 -17.1032,17.1032 -17.1032,17.1033 2.9281,3.1317 c 16.4871,17.633 27.5746,37.139 34.087,59.9681 7.839,27.4798 7.319,56.9423 -1.486,84.1865 -7.3456,22.7283 -19.7205,42.6206 -36.9755,59.4368 -20.1265,19.6147 -45.1917,32.8253 -72.6831,38.3077 -9.9244,1.9791 -17.7442,2.7296 -28.4427,2.7296 -10.6986,0 -18.5184,-0.7505 -28.4428,-2.7296 -33.6482,-6.7102 -63.5581,-25.0011 -85.1958,-52.1004 -8.7653,-10.9777 -15.7851,-23.0328 -20.9911,-36.0479 -10.7237,-26.8099 -13.2661,-55.4725 -7.4268,-83.7285 4.9394,-23.9011 15.5221,-45.4881 31.707,-64.6768 1.6611,-1.9694 24.1773,-24.7102 56.5547,-57.1189 l 53.7948,-53.8468 v -34.2593 -34.2593 l -69.7383,69.7175 c -38.356,38.3446 -71.3103,71.4439 -73.2316,73.554 -26.5412,29.1474 -43.2363,64.676 -48.6977,103.6327 -1.4021,10.0012 -1.601,13.3321 -1.601,26.8069 0,13.7476 0.2013,16.9678 1.7271,27.6292 7.157,50.0097 33.2695,94.6971 73.5373,125.8473 31.4609,24.3375 70.6759,38.4922 110.5958,39.9198 2.9832,0.1067 5.7812,0.2103 6.2177,0.2302 0.4366,0.02 3.841,-0.075 7.5653,-0.2112 z m 67.4819,-339.8403 c 7.355,-1.5872 14.0771,-7.031 17.3027,-14.0125 1.7348,-3.7547 2.1064,-5.6041 2.1064,-10.4834 0,-3.7388 -0.088,-4.6885 -0.6123,-6.6145 -2.2889,-8.4074 -9.1503,-15.3591 -17.5117,-17.7419 -2.5288,-0.7206 -8.1421,-0.9893 -11.0087,-0.5269 -5.4127,0.8732 -10.2793,3.497 -14.1475,7.6275 -8.5469,9.1266 -9.0889,23.0505 -1.2828,32.9586 3.745,4.7535 9.7074,8.1541 16.0711,9.166 1.9541,0.3107 6.8455,0.1099 9.0828,-0.3729 z"
         id="path827-3"
         inkscape:connector-curvature="0" />
      <g
         aria-label="#"
         style="font-style:normal;font-weight:normal;font-size:244.95025635px;line-height:1.25;font-family:sans-serif;letter-spacing:0px;word-spacing:0px;fill:#666666;fill-opacity:1;stroke:none;stroke-width:6.12375736"
         id="text828-3-7"
         transform="translate(-1013.6028,2182.9071)">
        <path
           d="m 1423.9894,338.12961 q 0,2.03328 -0.3588,3.46854 -0.2392,1.43525 -0.8372,2.39209 -0.4784,0.83723 -1.3157,1.31565 -0.7176,0.35881 -1.5548,0.35881 h -15.6682 l -4.7842,39.70874 h 13.8741 q 1.7941,0 2.8705,1.79407 1.1961,1.79407 1.1961,5.86062 0,2.03328 -0.3588,3.46854 -0.3589,1.43525 -0.8373,2.39209 -0.4784,0.83723 -1.3156,1.31565 -0.7176,0.35881 -1.5549,0.35881 h -15.9074 l -5.0234,40.90478 q -0.1196,0.83723 -0.4784,1.55486 -0.3588,0.59803 -1.3157,1.07644 -0.9568,0.35882 -2.6313,0.47842 -1.6744,0.23921 -4.4253,0.23921 -2.7509,0 -4.545,-0.23921 -1.7941,-0.1196 -2.7509,-0.47842 -0.9568,-0.47841 -1.3157,-1.07644 -0.3588,-0.71763 -0.2392,-1.55486 l 5.0234,-40.90478 h -33.2501 l -5.0234,40.90478 q -0.2392,0.83723 -0.598,1.55486 -0.2392,0.59803 -1.196,1.07644 -0.8373,0.35882 -2.5117,0.47842 -1.6745,0.23921 -4.4254,0.23921 -2.8705,0 -4.6646,-0.23921 -1.794,-0.1196 -2.7509,-0.47842 -0.9568,-0.47841 -1.3156,-1.07644 -0.3588,-0.71763 -0.2392,-1.55486 l 4.9037,-40.90478 h -13.8741 q -1.7941,0 -2.9901,-1.67446 -1.0764,-1.79407 -1.0764,-5.86063 0,-2.03328 0.3588,-3.46853 0.3588,-1.43526 0.8372,-2.27249 0.4784,-0.95684 1.196,-1.43525 0.7177,-0.47842 1.6745,-0.47842 h 16.027 l 4.9038,-39.70874 h -14.4721 q -1.7941,0 -2.9902,-1.79407 -1.0764,-1.79406 -1.0764,-5.62141 0,-4.18616 1.0764,-5.98023 1.1961,-1.79407 2.9902,-1.79407 h 16.2662 l 4.9038,-38.39308 q 0.1196,-0.83724 0.4784,-1.43526 0.4784,-0.71763 1.4353,-1.07644 1.0764,-0.47842 2.8705,-0.71763 1.794,-0.23921 4.5449,-0.23921 2.8706,0 4.545,0.23921 1.6745,0.23921 2.5117,0.71763 0.9569,0.35881 1.1961,1.07644 0.2392,0.59802 0.2392,1.31565 l -5.0234,38.51269 h 33.2501 l 4.6645,-38.39308 q 0.1196,-0.83724 0.5981,-1.43526 0.4784,-0.71763 1.4352,-1.07644 0.9569,-0.47842 2.7509,-0.71763 1.7941,-0.23921 4.6646,-0.23921 2.7509,0 4.4254,0.23921 1.794,0.23921 2.6313,0.71763 0.8372,0.35881 1.0764,1.07644 0.3588,0.59802 0.2392,1.31565 l -4.7842,38.51269 h 13.7546 q 1.794,0 2.8705,1.91367 1.196,1.79407 1.196,5.74102 z m -70.6863,7.53509 -4.7842,39.70874 h 33.1305 l 5.0234,-39.70874 z"
           style="font-style:normal;font-variant:normal;font-weight:normal;font-stretch:normal;font-family:Calibri;-inkscape-font-specification:Calibri;fill:#666666;stroke-width:6.12375736"
           id="path819-7"
           inkscape:connector-curvature="0" />
      </g>
    </g>
  </g>
</svg>
